<mxfile host="app.diagrams.net" modified="2022-10-06T19:44:13.538Z" agent="5.0 (Windows NT 10.0; Win64; x64) AppleWebKit/537.36 (KHTML, like Gecko) Chrome/106.0.0.0 Safari/537.36 Edg/106.0.1370.34" etag="yxXvLgvSM-L0kPz8e5_0" version="20.4.0" type="github" pages="2">
  <diagram name="Page-1" id="2cc2dc42-3aac-f2a9-1cec-7a8b7cbee084">
    <mxGraphModel dx="1207" dy="671" grid="1" gridSize="10" guides="1" tooltips="1" connect="1" arrows="1" fold="1" page="1" pageScale="1" pageWidth="1100" pageHeight="850" background="#ffffff" math="0" shadow="0">
      <root>
        <mxCell id="0" />
        <mxCell id="1" parent="0" />
        <mxCell id="7026571954dc6520-1" value="" style="strokeWidth=1;shadow=0;dashed=0;align=left;html=1;shape=mxgraph.mockup.containers.browserWindow;rSize=0;strokeColor=#666666;mainText=,;recursiveResize=0;rounded=0;labelBackgroundColor=none;fontFamily=Verdana;fontSize=12" parent="1" vertex="1">
          <mxGeometry x="30" y="20" width="1290" height="880" as="geometry" />
        </mxCell>
        <mxCell id="7026571954dc6520-2" value="Page 1" style="strokeWidth=1;shadow=0;dashed=0;align=center;html=1;shape=mxgraph.mockup.containers.anchor;fontSize=17;fontColor=#666666;align=left;" parent="7026571954dc6520-1" vertex="1">
          <mxGeometry x="60" y="12" width="110" height="26" as="geometry" />
        </mxCell>
        <mxCell id="7026571954dc6520-3" value="https://www.AutoQuotes.com" style="strokeWidth=1;shadow=0;dashed=0;align=center;html=1;shape=mxgraph.mockup.containers.anchor;rSize=0;fontSize=17;fontColor=#666666;align=left;" parent="7026571954dc6520-1" vertex="1">
          <mxGeometry x="130" y="60" width="250" height="26" as="geometry" />
        </mxCell>
        <mxCell id="7026571954dc6520-4" value="&lt;font style=&quot;font-size: 32px;&quot;&gt;Mechanic Shop&#39;s Logo&lt;/font&gt;" style="text;html=1;points=[];align=left;verticalAlign=top;spacingTop=-4;fontSize=30;fontFamily=Verdana" parent="7026571954dc6520-1" vertex="1">
          <mxGeometry x="30" y="140" width="340" height="50" as="geometry" />
        </mxCell>
        <mxCell id="7026571954dc6520-15" value="" style="verticalLabelPosition=bottom;shadow=0;dashed=0;align=center;html=1;verticalAlign=top;strokeWidth=1;shape=mxgraph.mockup.markup.line;strokeColor=#999999;rounded=0;labelBackgroundColor=none;fillColor=#ffffff;fontFamily=Verdana;fontSize=12;fontColor=#000000;" parent="7026571954dc6520-1" vertex="1">
          <mxGeometry y="190" width="1290" height="20" as="geometry" />
        </mxCell>
        <mxCell id="uxIm0OtAlCZmldJRl4W5-10" value="" style="shape=image;html=1;verticalAlign=top;verticalLabelPosition=bottom;labelBackgroundColor=#ffffff;imageAspect=0;aspect=fixed;image=https://cdn3.iconfinder.com/data/icons/essential-rounded/64/Rounded-31-128.png" parent="7026571954dc6520-1" vertex="1">
          <mxGeometry x="1160" y="143" width="44" height="44" as="geometry" />
        </mxCell>
        <mxCell id="uxIm0OtAlCZmldJRl4W5-12" value="" style="shape=image;html=1;verticalAlign=top;verticalLabelPosition=bottom;labelBackgroundColor=#ffffff;imageAspect=0;aspect=fixed;image=https://cdn3.iconfinder.com/data/icons/user-interface-169/32/login-128.png" parent="7026571954dc6520-1" vertex="1">
          <mxGeometry x="1210" y="142.5" width="45" height="45" as="geometry" />
        </mxCell>
        <mxCell id="uxIm0OtAlCZmldJRl4W5-13" value="UserName" style="text;strokeColor=none;fillColor=none;html=1;fontSize=24;fontStyle=1;verticalAlign=middle;align=center;" parent="7026571954dc6520-1" vertex="1">
          <mxGeometry x="1020" y="145" width="120" height="40" as="geometry" />
        </mxCell>
        <mxCell id="bczDK4QLQC4bnFottRKD-1" value="" style="perimeter=none;dashed=0;shape=rect;fillColor=#ffffff;strokeColor=#eeeeee;shadow=1;" parent="7026571954dc6520-1" vertex="1">
          <mxGeometry y="200" width="270" height="680" as="geometry" />
        </mxCell>
        <mxCell id="bczDK4QLQC4bnFottRKD-2" value="Menu item one" style="text;verticalAlign=top;fontSize=15;spacing=16;resizeWidth=1;" parent="bczDK4QLQC4bnFottRKD-1" vertex="1">
          <mxGeometry width="268.3125" height="42" relative="1" as="geometry" />
        </mxCell>
        <mxCell id="bczDK4QLQC4bnFottRKD-3" value="" style="perimeter=none;dashed=0;shape=mxgraph.gmdl.triangle;strokeColor=none;fillColor=#666666;direction=north;" parent="bczDK4QLQC4bnFottRKD-2" vertex="1">
          <mxGeometry x="1" y="0.5" width="5" height="10" relative="1" as="geometry">
            <mxPoint x="-27" as="offset" />
          </mxGeometry>
        </mxCell>
        <mxCell id="bczDK4QLQC4bnFottRKD-4" value="Menu item two" style="text;verticalAlign=middle;fontSize=15;spacing=16;resizeWidth=1;fontStyle=1" parent="bczDK4QLQC4bnFottRKD-1" vertex="1">
          <mxGeometry width="268.3125" height="42" relative="1" as="geometry">
            <mxPoint y="42" as="offset" />
          </mxGeometry>
        </mxCell>
        <mxCell id="bczDK4QLQC4bnFottRKD-5" value="" style="perimeter=none;dashed=0;shape=mxgraph.gmdl.triangle;strokeColor=none;fillColor=#666666;direction=north;" parent="bczDK4QLQC4bnFottRKD-4" vertex="1">
          <mxGeometry x="1" y="0.5" width="5" height="10" relative="1" as="geometry">
            <mxPoint x="-27" y="-5" as="offset" />
          </mxGeometry>
        </mxCell>
        <mxCell id="bczDK4QLQC4bnFottRKD-6" value="Menu item three" style="text;verticalAlign=bottom;fontSize=15;spacing=16;resizeWidth=1;" parent="bczDK4QLQC4bnFottRKD-1" vertex="1">
          <mxGeometry width="268.3125" height="42" relative="1" as="geometry">
            <mxPoint y="84" as="offset" />
          </mxGeometry>
        </mxCell>
        <mxCell id="bczDK4QLQC4bnFottRKD-7" value="" style="perimeter=none;dashed=0;shape=mxgraph.gmdl.triangle;strokeColor=none;fillColor=#666666;direction=north;" parent="bczDK4QLQC4bnFottRKD-6" vertex="1">
          <mxGeometry x="1" y="0.5" width="5" height="10" relative="1" as="geometry">
            <mxPoint x="-27" y="-10" as="offset" />
          </mxGeometry>
        </mxCell>
        <mxCell id="uxIm0OtAlCZmldJRl4W5-17" value="&lt;h3&gt;Need help?&lt;/h3&gt;" style="strokeWidth=1;shadow=0;dashed=0;align=center;html=1;shape=mxgraph.mockup.text.textBox;fontColor=#666666;align=left;fontSize=17;spacingLeft=4;spacingTop=-3;strokeColor=#666666;mainText=" parent="bczDK4QLQC4bnFottRKD-1" vertex="1">
          <mxGeometry x="69.99000000000001" y="550" width="119.38" height="40" as="geometry" />
        </mxCell>
        <mxCell id="7026571954dc6520-21" value="" style="verticalLabelPosition=bottom;shadow=0;dashed=0;align=center;html=1;verticalAlign=top;strokeWidth=1;shape=mxgraph.mockup.markup.line;strokeColor=#999999;rounded=0;labelBackgroundColor=none;fillColor=#ffffff;fontFamily=Verdana;fontSize=12;fontColor=#000000;" parent="bczDK4QLQC4bnFottRKD-1" vertex="1">
          <mxGeometry y="530" width="270" height="20" as="geometry" />
        </mxCell>
        <mxCell id="uxIm0OtAlCZmldJRl4W5-19" value="&lt;div style=&quot;text-align: center;&quot;&gt;&lt;span style=&quot;font-size: 15px; background-color: initial;&quot;&gt;someEmail@gmail.com&lt;/span&gt;&lt;/div&gt;&lt;font style=&quot;font-size: 15px;&quot;&gt;&lt;div style=&quot;text-align: center;&quot;&gt;&lt;span style=&quot;background-color: initial;&quot;&gt;(437) 975-6985&lt;/span&gt;&lt;/div&gt;&lt;div style=&quot;text-align: center;&quot;&gt;&lt;span style=&quot;background-color: initial;&quot;&gt;517 Maple Road, North York, Ontario&lt;/span&gt;&lt;/div&gt;&lt;div style=&quot;text-align: center;&quot;&gt;&lt;br&gt;&lt;/div&gt;&lt;/font&gt;" style="text;spacingTop=-5;whiteSpace=wrap;html=1;align=left;fontSize=12;fontFamily=Helvetica;fillColor=none;strokeColor=none;" parent="bczDK4QLQC4bnFottRKD-1" vertex="1">
          <mxGeometry x="19.997500000000002" y="600" width="219.375" height="60" as="geometry" />
        </mxCell>
      </root>
    </mxGraphModel>
  </diagram>
  <diagram id="mIhOV0RNpQ1VE6VygX9t" name="Page-2">
    <mxGraphModel dx="1207" dy="671" grid="1" gridSize="10" guides="1" tooltips="1" connect="1" arrows="1" fold="1" page="1" pageScale="1" pageWidth="850" pageHeight="1100" math="0" shadow="0">
      <root>
        <mxCell id="0" />
        <mxCell id="1" parent="0" />
      </root>
    </mxGraphModel>
  </diagram>
</mxfile>
